<!-- TEMPORARY PLACEHOLDER — hand-authored for Freshers' Party 2026. NOT generated by Haikei.
     Replace with a Haikei "Blurry gradient" / "Blob scene" export (see HAIKEI_EXPORTS.md), keeping this filename. -->
<svg xmlns="http://www.w3.org/2000/svg" viewBox="0 0 960 640" preserveAspectRatio="xMidYMid slice" aria-hidden="true">
  <defs>
    <filter id="b" x="-50%" y="-50%" width="200%" height="200%"><feGaussianBlur stdDeviation="70"/></filter>
  </defs>
  <g filter="url(#b)">
    <path fill="#7445cc" fill-opacity="0.35" d="M188 132c78-58 196-40 250 34s16 176-62 222-190 20-238-44-28-154 50-212z"/>
    <path fill="#3a55d8" fill-opacity="0.28" d="M660 250c70-44 170-16 196 58s-30 160-110 174-150-42-160-104 4-84 74-128z"/>
    <path fill="#d7b777" fill-opacity="0.14" d="M430 470c50-26 120-6 134 44s-24 96-78 96-94-30-96-72 0-44 40-68z"/>
  </g>
</svg>
